# xmcd
#
# Track frame offsets: 
#        150
#        10285
#        21727
#        34430
#        47212
#        59432
#        72232
#        84807
#        100135
#        114340
#        126555
#        141272
#        151707
#        167885
#        180997
#        195952
#        206765
#        219565
#        231562
#        240292
#        252655
#        259510
#        274830
#        288862
#        303705
#        317877
#        340597
#
# Disc length: 4703 seconds
#
# Revision: 0
# Processed by: cddbd v1.5.2PL0 Copyright (c) Steve Scherf et al.
# Submitted via: ExactAudioCopy v1.0b3
#
DISCID=90125d1b
DTITLE=Bob Wills and His Texas Playboys - Faded Love 1947-1973 [CD12)
DYEAR=2005
DGENRE=Country
TTITLE0=Blue Bonnet Lane
TTITLE1=What Makes Bob Holler
TTITLE2=When You Leave Amarillo
TTITLE3=Comin' Down From Denver
TTITLE4=Goin' Away Party
TTITLE5=My Shoes Keep Walking Back To You
TTITLE6=Silver Lake Blues
TTITLE7=La Golondrina
TTITLE8=Twinkle Twinkle Little Star
TTITLE9=Big Ball's In Cowtown
TTITLE10=Bob Willis Special
TTITLE11=Miss Molly
TTITLE12=Keeper Of My Heart
TTITLE13=Bubbles In My Beer
TTITLE14=Twin Guitar Special
TTITLE15=I Can't Go On This Way
TTITLE16=I Wonder If You Feel The Way I Do
TTITLE17=Yearning
TTITLE18=Crippled Turkey
TTITLE19=She's Really Gone
TTITLE20=Playboy Theme
TTITLE21=Baby, That Would Sure Go Good
TTITLE22=Stay All Night (Stay A Little Longer)
TTITLE23=Faded Love
TTITLE24=San Antonio Rose
TTITLE25=Milk Cow Blues
TTITLE26=That's What I Like 'Bout The South
EXTD=
EXTT0=
EXTT1=
EXTT2=
EXTT3=
EXTT4=
EXTT5=
EXTT6=
EXTT7=
EXTT8=
EXTT9=
EXTT10=
EXTT11=
EXTT12=
EXTT13=
EXTT14=
EXTT15=
EXTT16=
EXTT17=
EXTT18=
EXTT19=
EXTT20=
EXTT21=
EXTT22=
EXTT23=
EXTT24=
EXTT25=
EXTT26=
PLAYORDER=
